<svg width="186" height="111" viewBox="0 0 186 111" fill="none" xmlns="http://www.w3.org/2000/svg">
<path d="M24 68.3243V13.7622C24 11.4187 27.1784 10.7033 28.1825 12.8208L54.5 68.3243M54.5 68.3243L80.8175 12.8208C81.8216 10.7033 85 11.4017 85 13.7451C85 22.6866 85 39.1346 85 68.3243C85 122.146 47.5867 114.838 54.5 68.3243Z" stroke="#031638" stroke-width="1.5"/>
<path d="M41.7686 41.6957C53.1135 65.3479 55.8351 65.7174 66.9402 41.6957" stroke="#031638"/>
<line x1="120.5" y1="27" x2="120.5" y2="55" stroke="#031638" stroke-width="3"/>
<path d="M168.072 55.36C166.584 55.36 165.264 54.988 164.112 54.244C162.96 53.5 162.048 52.48 161.376 51.184C160.728 49.864 160.404 48.364 160.404 46.684C160.404 45.004 160.74 43.516 161.412 42.22C162.084 40.924 163.02 39.916 164.22 39.196C165.42 38.452 166.8 38.08 168.36 38.08C169.872 38.08 171.192 38.428 172.32 39.124C173.472 39.82 174.36 40.792 174.984 42.04C175.632 43.264 175.956 44.68 175.956 46.288C175.956 46.432 175.944 46.588 175.92 46.756C175.92 46.924 175.908 47.068 175.884 47.188H161.592V45.568H174.48L173.688 46.684C173.736 46.564 173.784 46.408 173.832 46.216C173.904 46 173.94 45.796 173.94 45.604C173.94 44.476 173.688 43.468 173.184 42.58C172.704 41.692 172.044 40.996 171.204 40.492C170.364 39.988 169.416 39.736 168.36 39.736C167.136 39.736 166.068 40.024 165.156 40.6C164.268 41.152 163.572 41.944 163.068 42.976C162.564 43.984 162.312 45.184 162.312 46.576C162.312 47.992 162.552 49.228 163.032 50.284C163.536 51.34 164.232 52.156 165.12 52.732C166.032 53.308 167.088 53.596 168.288 53.596C169.56 53.596 170.664 53.32 171.6 52.768C172.56 52.216 173.412 51.352 174.156 50.176L175.668 51.148C174.732 52.588 173.64 53.656 172.392 54.352C171.168 55.024 169.728 55.36 168.072 55.36Z" fill="#031638"/>
<path d="M149.808 50.284C150.048 50.884 150.372 51.436 150.78 51.94C151.188 52.444 151.704 52.852 152.328 53.164C152.976 53.476 153.732 53.632 154.596 53.632C155.604 53.632 156.408 53.38 157.008 52.876C157.632 52.348 157.944 51.628 157.944 50.716C157.944 50.044 157.752 49.492 157.368 49.06C156.984 48.604 156.48 48.232 155.856 47.944C155.232 47.632 154.56 47.356 153.84 47.116C153.072 46.828 152.328 46.504 151.608 46.144C150.888 45.784 150.288 45.304 149.808 44.704C149.352 44.08 149.124 43.276 149.124 42.292C149.124 41.356 149.352 40.576 149.808 39.952C150.288 39.328 150.9 38.872 151.644 38.584C152.412 38.272 153.228 38.116 154.092 38.116C155.028 38.116 155.868 38.272 156.612 38.584C157.356 38.896 157.992 39.304 158.52 39.808C159.048 40.312 159.456 40.876 159.744 41.5L158.196 42.436C157.812 41.716 157.272 41.092 156.576 40.564C155.88 40.036 154.98 39.772 153.876 39.772C153.06 39.772 152.364 39.976 151.788 40.384C151.236 40.792 150.96 41.392 150.96 42.184C150.96 42.832 151.14 43.372 151.5 43.804C151.86 44.212 152.34 44.548 152.94 44.812C153.54 45.076 154.176 45.328 154.848 45.568C155.736 45.904 156.552 46.276 157.296 46.684C158.064 47.092 158.676 47.596 159.132 48.196C159.612 48.796 159.852 49.564 159.852 50.5C159.852 51.94 159.348 53.116 158.34 54.028C157.356 54.916 156.072 55.36 154.488 55.36C153.336 55.36 152.328 55.156 151.464 54.748C150.624 54.34 149.94 53.812 149.412 53.164C148.908 52.516 148.536 51.844 148.296 51.148L149.808 50.284Z" fill="#031638"/>
<path d="M136.132 50.032C136.132 50.848 136.312 51.532 136.672 52.084C137.056 52.636 137.56 53.056 138.184 53.344C138.832 53.608 139.54 53.74 140.308 53.74C141.244 53.74 142.096 53.524 142.864 53.092C143.656 52.66 144.292 52.024 144.772 51.184C145.252 50.344 145.492 49.312 145.492 48.088L145.924 49.672C145.924 50.968 145.612 52.036 144.988 52.876C144.364 53.716 143.584 54.34 142.648 54.748C141.712 55.156 140.764 55.36 139.804 55.36C138.868 55.36 137.968 55.168 137.104 54.784C136.24 54.376 135.544 53.788 135.016 53.02C134.488 52.252 134.224 51.28 134.224 50.104C134.224 48.496 134.776 47.224 135.88 46.288C137.008 45.352 138.532 44.884 140.452 44.884C141.532 44.884 142.456 45.016 143.224 45.28C144.016 45.52 144.664 45.796 145.168 46.108C145.672 46.42 146.032 46.684 146.248 46.9V48.088C145.432 47.512 144.556 47.092 143.62 46.828C142.708 46.54 141.748 46.396 140.74 46.396C139.804 46.396 138.988 46.528 138.292 46.792C137.62 47.056 137.092 47.452 136.708 47.98C136.324 48.508 136.132 49.192 136.132 50.032ZM136.204 41.464L135.268 40.06C135.892 39.628 136.696 39.196 137.68 38.764C138.688 38.308 139.924 38.08 141.388 38.08C142.636 38.08 143.704 38.284 144.592 38.692C145.48 39.1 146.164 39.688 146.644 40.456C147.124 41.224 147.364 42.16 147.364 43.264V55H145.492V43.516C145.492 43.036 145.42 42.58 145.276 42.148C145.132 41.692 144.892 41.284 144.556 40.924C144.244 40.564 143.812 40.276 143.26 40.06C142.708 39.844 142.036 39.736 141.244 39.736C140.428 39.736 139.696 39.832 139.048 40.024C138.4 40.216 137.836 40.444 137.356 40.708C136.9 40.972 136.516 41.224 136.204 41.464Z" fill="#031638"/>
<path d="M120.131 55V53.76H133.851V55H120.131ZM120.131 28.24V27H133.851V28.24H120.131ZM120.131 40.16V38.92H133.051V40.16H120.131ZM119.531 27H120.851V55H119.531V27Z" fill="#031638"/>
<path d="M119.552 26.92H121.424V55H119.552V26.92ZM105.404 46.72C105.404 44.92 105.764 43.384 106.484 42.112C107.204 40.816 108.164 39.82 109.364 39.124C110.588 38.428 111.932 38.08 113.396 38.08C114.836 38.08 116.072 38.464 117.104 39.232C118.136 39.976 118.94 40.996 119.516 42.292C120.116 43.588 120.416 45.064 120.416 46.72C120.416 48.352 120.116 49.828 119.516 51.148C118.94 52.444 118.136 53.476 117.104 54.244C116.072 54.988 114.836 55.36 113.396 55.36C111.932 55.36 110.588 55.012 109.364 54.316C108.164 53.62 107.204 52.624 106.484 51.328C105.764 50.032 105.404 48.496 105.404 46.72ZM107.312 46.72C107.312 48.16 107.588 49.396 108.14 50.428C108.716 51.46 109.484 52.252 110.444 52.804C111.428 53.332 112.496 53.596 113.648 53.596C114.68 53.596 115.64 53.296 116.528 52.696C117.44 52.096 118.172 51.28 118.724 50.248C119.276 49.216 119.552 48.04 119.552 46.72C119.552 45.4 119.276 44.224 118.724 43.192C118.172 42.16 117.44 41.344 116.528 40.744C115.64 40.144 114.68 39.844 113.648 39.844C112.496 39.844 111.428 40.12 110.444 40.672C109.484 41.2 108.716 41.98 108.14 43.012C107.588 44.044 107.312 45.28 107.312 46.72Z" fill="#031638"/>
<path d="M96.072 55.36C94.584 55.36 93.264 54.988 92.112 54.244C90.96 53.5 90.048 52.48 89.376 51.184C88.728 49.864 88.404 48.364 88.404 46.684C88.404 45.004 88.74 43.516 89.412 42.22C90.084 40.924 91.02 39.916 92.22 39.196C93.42 38.452 94.8 38.08 96.36 38.08C97.872 38.08 99.192 38.428 100.32 39.124C101.472 39.82 102.36 40.792 102.984 42.04C103.632 43.264 103.956 44.68 103.956 46.288C103.956 46.432 103.944 46.588 103.92 46.756C103.92 46.924 103.908 47.068 103.884 47.188H89.592V45.568H102.48L101.688 46.684C101.736 46.564 101.784 46.408 101.832 46.216C101.904 46 101.94 45.796 101.94 45.604C101.94 44.476 101.688 43.468 101.184 42.58C100.704 41.692 100.044 40.996 99.204 40.492C98.364 39.988 97.416 39.736 96.36 39.736C95.136 39.736 94.068 40.024 93.156 40.6C92.268 41.152 91.572 41.944 91.068 42.976C90.564 43.984 90.312 45.184 90.312 46.576C90.312 47.992 90.552 49.228 91.032 50.284C91.536 51.34 92.232 52.156 93.12 52.732C94.032 53.308 95.088 53.596 96.288 53.596C97.56 53.596 98.664 53.32 99.6 52.768C100.56 52.216 101.412 51.352 102.156 50.176L103.668 51.148C102.732 52.588 101.64 53.656 100.392 54.352C99.168 55.024 97.728 55.36 96.072 55.36Z" fill="#031638"/>
<circle cx="85" cy="63" r="5.5" fill="#031638" stroke="white"/>
<circle cx="85" cy="63" r="3" fill="white"/>
</svg>
